<svg width="64" height="64" viewBox="0 0 64 64" fill="none" xmlns="http://www.w3.org/2000/svg" role="img" aria-labelledby="t1 d1">
  <title id="t1">LockedUntil İkon</title>
  <desc id="d1">Gradyanlı kare içinde kilit ve kum saati.</desc>
  <defs>
    <linearGradient id="ig1" x1="0" y1="0" x2="64" y2="64" gradientUnits="userSpaceOnUse">
      <stop offset="0" stop-color="#22d3ee"/>
      <stop offset="1" stop-color="#6366f1"/>
    </linearGradient>
    <linearGradient id="ig2" x1="0" y1="0" x2="64" y2="64" gradientUnits="userSpaceOnUse">
      <stop offset="0" stop-color="#10b981"/>
      <stop offset="1" stop-color="#0ea5a9"/>
    </linearGradient>
    <clipPath id="iclip">
      <rect x="4" y="4" width="56" height="56" rx="14"/>
    </clipPath>
  </defs>

  <rect x="4.5" y="4.5" width="55" height="55" rx="14" fill="url(#ig1)" stroke="rgba(255,255,255,0.14)" stroke-width="1.5"/>
  <g clip-path="url(#iclip)">
    <ellipse cx="46" cy="8" rx="30" ry="12" fill="rgba(255,255,255,0.20)"/>
  </g>

  <!-- Kilit gövdesi -->
  <rect x="20" y="26" width="24" height="20" rx="6" fill="url(#ig2)"/>
  <!-- Kilit kemeri -->
  <path d="M24.5 26v-4.2c0-6 4.7-10.8 10.5-10.8S45.5 15.8 45.5 21.8V26" fill="none" stroke="white" stroke-opacity="0.95" stroke-width="3"/>

  <!-- Kum saati -->
  <g transform="translate(22.5,28)">
    <path d="M0 0h19c0 4.7-4.4 8.2-9.5 8.2S0 4.7 0 0Z" fill="rgba(255,255,255,0.9)"/>
    <path d="M0 16.4h19c0-4.7-4.4-8.2-9.5-8.2S0 11.7 0 16.4Z" fill="rgba(255,255,255,0.9)"/>
    <rect x="-1.2" y="-2" width="21.4" height="20.4" rx="3" stroke="rgba(255,255,255,0.85)" stroke-width="2.2" fill="none"/>
    <circle cx="9.5" cy="11" r="1.6" fill="rgba(16,185,129,0.95)"/>
  </g>
</svg>
